<mxfile host="app.diagrams.net" modified="2023-06-14T22:43:24.736Z" agent="Mozilla/5.0 (Macintosh; Intel Mac OS X 10_15_7) AppleWebKit/537.36 (KHTML, like Gecko) Chrome/113.0.0.0 Safari/537.36 Edg/113.0.1774.57" etag="vI1LhR3isgG808unJ_wZ" version="21.2.3" type="device">
  <diagram name="Page-1" id="L-aJ6dkuIHGzE6D3fHJm">
    <mxGraphModel dx="2524" dy="922" grid="1" gridSize="10" guides="1" tooltips="1" connect="1" arrows="1" fold="1" page="1" pageScale="1" pageWidth="850" pageHeight="1100" math="0" shadow="0">
      <root>
        <mxCell id="0" />
        <mxCell id="1" parent="0" />
        <mxCell id="s-Q4NVBxyVLEI7xBM-BY-13" value="" style="rounded=0;whiteSpace=wrap;html=1;" vertex="1" parent="1">
          <mxGeometry x="-365" y="110" width="1215" height="610" as="geometry" />
        </mxCell>
        <mxCell id="s-Q4NVBxyVLEI7xBM-BY-12" value="-" style="sketch=0;html=1;verticalAlign=top;labelPosition=center;verticalLabelPosition=bottom;align=center;spacingTop=-6;fontSize=11;fontStyle=1;fontColor=#999999;shape=image;aspect=fixed;imageAspect=0;image=data:image/svg+xml,PHN2ZyB4bWxucz0iaHR0cDovL3d3dy53My5vcmcvMjAwMC9zdmciIGlkPSJzdmcxMDczNDEiIHZlcnNpb249IjEuMSIgdmlld0JveD0iMCAwIDI3NS45ODY2OSAyNTIuNDI5NTMiIGhlaWdodD0iMjUyLjQyOTUzbW0iIHdpZHRoPSIyNzUuOTg2NjltbSI+JiN4YTsgICYjeGE7ICA8ZGVmcyBpZD0iZGVmczEwNzMzOCIvPiYjeGE7ICA8ZyB0cmFuc2Zvcm09InRyYW5zbGF0ZSgzMi40NTE1MzMsLTIwLjk0NjAxKSIgaWQ9ImxheWVyMSI+JiN4YTsgICAgPHBhdGggZD0ibSAxMDEuNjgwMDksMjczLjM3NTU0IGMgLTE2LjQ1MjEyLDAgLTMwLjkxMzQyMiwtMTQuMTc3MzIgLTMwLjkxMzQyMiwtMzQuMjM1OSAwLC0xOS4xNzQ5OSAxNS4xNTE1MjIsLTMzLjY1ODA3IDMzLjUxMzYxMiwtMzMuNjU4MDcgaCAxMDQuODc0NTEgdiA2Ny44OTM5NyB6IE0gLTEuNTM4MTA0NiwxODEuODUzMzYgYyAtMTYuNDUyMTI2NCwwIC0zMC45MTM0Mjg0LC0xNC4xNzczMiAtMzAuOTEzNDI4NCwtMzQuMjM1ODkgMCwtMTkuMTc1IDE1LjE1MTUxOSwtMzMuNjU4MDggMzMuNTEzNjE4NCwtMzMuNjU4MDggSCAxMDUuOTM2NiB2IDY3Ljg5Mzk3IHogTSAxMDEuNjgwMSw4OC44Mzk5OCBjIC0xNi40NTIxMzEsMCAtMzAuOTEzNDMzLC0xNC4xNzczMTcgLTMwLjkxMzQzMywtMzQuMjM1ODk1IDAsLTE5LjE3NDk5NCAxNS4xNTE1MTksLTMzLjY1ODA3NSAzMy41MTM2MjMsLTMzLjY1ODA3NSBIIDIwOS4xNTQ4IHYgNjcuODkzOTcgeiIgc3R5bGU9Im9wYWNpdHk6MTtmaWxsOiM3NjllZjU7ZmlsbC1vcGFjaXR5OjE7c3Ryb2tlOm5vbmU7c3Ryb2tlLXdpZHRoOjAuMjY0NTgzcHg7c3Ryb2tlLWxpbmVjYXA6YnV0dDtzdHJva2UtbGluZWpvaW46bWl0ZXI7c3Ryb2tlLW9wYWNpdHk6MSIgaWQ9InBhdGgxMDc2MTAtMyIvPiYjeGE7ICAgIDxwYXRoIGQ9Im0gMjQzLjUzNTE1LDIzOS40Mjg1NSBjIDAsMTguOTg3NzUgLTE1LjM5MjYxLDMzLjk0Njk5IC0zNC4zODAzNiwzMy45NDY5OSAtMTguOTg3NzQsMCAtMzQuMzgwMzQsLTE0Ljk1OTI0IC0zNC4zODAzNCwtMzMuOTQ2OTkgMCwtMTguOTg3NzQgMTUuMzkyNiwtMzMuOTQ2OTggMzQuMzgwMzQsLTMzLjk0Njk4IDE4Ljk4Nzc1LC0xZS01IDM0LjM4MDM2LDE0Ljk1OTI0IDM0LjM4MDM2LDMzLjk0Njk4IHogTSAxNDAuMzE2OTYsMTQ3LjkwNjM4IGMgMCwxOC45ODc3NCAtMTUuMzkyNjEsMzMuOTQ2OTkgLTM0LjM4MDM2LDMzLjk0Njk4IC0xOC45ODc3NDUsMCAtMzQuMzgwMzU1LC0xNC45NTkyNCAtMzQuMzgwMzU1LC0zMy45NDY5OCAwLC0xOC45ODc3NSAxNS4zOTI2MSwtMzMuOTQ2OTkgMzQuMzgwMzU1LC0zMy45NDY5OSAxOC45ODc3NSwwIDM0LjM4MDM2LDE0Ljk1OTI0IDM0LjM4MDM2LDMzLjk0Njk5IHogTSAyNDMuNTM1MTUsNTQuODkyOTk0IGMgMCwxOC45ODc3NDcgLTE1LjM5MjYxLDMzLjk0Njk5IC0zNC4zODAzNiwzMy45NDY5ODYgLTE4Ljk4Nzc0LC0xMGUtNyAtMzQuMzgwMzQsLTE0Ljk1OTI0MyAtMzQuMzgwMzQsLTMzLjk0Njk4NiAwLC0xOC45ODc3NDMgMTUuMzkyNiwtMzMuOTQ2OTgzIDM0LjM4MDM0LC0zMy45NDY5ODQgMTguOTg3NzUsLTVlLTYgMzQuMzgwMzYsMTQuOTU5MjM3IDM0LjM4MDM2LDMzLjk0Njk4NCB6IiBzdHlsZT0ib3BhY2l0eToxO2ZpbGw6IzQwNzVlNjtmaWxsLW9wYWNpdHk6MTtzdHJva2Utd2lkdGg6MjE7c3Ryb2tlLWxpbmVqb2luOnJvdW5kIiBpZD0icGF0aDEwNzYzNC00Ii8+JiN4YTsgIDwvZz4mI3hhOzwvc3ZnPg==;" vertex="1" parent="1">
          <mxGeometry x="970" y="363" width="143.68" height="130" as="geometry" />
        </mxCell>
        <mxCell id="s-Q4NVBxyVLEI7xBM-BY-14" value="" style="shape=image;verticalLabelPosition=bottom;labelBackgroundColor=default;verticalAlign=top;aspect=fixed;imageAspect=0;image=data:image/svg+xml,PHN2ZyB4bWxuczp4bGluaz0iaHR0cDovL3d3dy53My5vcmcvMTk5OS94bGluayIgeG1sbnM9Imh0dHA6Ly93d3cudzMub3JnLzIwMDAvc3ZnIiBwcmVzZXJ2ZUFzcGVjdFJhdGlvPSJ4TWlkWU1pZCIgdmVyc2lvbj0iMS4xIiB2aWV3Qm94PSIwIDAgMjU2IDI1NiIgaGVpZ2h0PSI4MDAiIHdpZHRoPSI4MDAiPiYjeGE7ICAgIDxkZWZzPiYjeGE7ICAgICAgICA8cmFkaWFsR3JhZGllbnQgaWQ9InJhZGlhbEdyYWRpZW50LTEiIGdyYWRpZW50VHJhbnNmb3JtPSJ0cmFuc2xhdGUoMC4wMDAwMDAsMS4wMDAwMDApLHNjYWxlKDAuODMyNTMxLDEuMDAwMDAwKSxzY2FsZSgxLjAwMDAwMCwwLjgzMjUzMSksdHJhbnNsYXRlKC0wLjAwMDAwMCwtMS4wMDAwMDApIiByPSIxMjAuMTE1Njk3JSIgZnk9Ijk5Ljk5OTk5NCUiIGZ4PSIxLjU1NzUwMjc1ZS0wNSUiIGN5PSI5OS45OTk5OTQlIiBjeD0iMS41NTc1MDI3NWUtMDUlIj4mI3hhOyAgICAgICAgICAgIDxzdG9wIG9mZnNldD0iMCUiIHN0b3AtY29sb3I9IiMwMEM4MTIiPiYjeGE7JiN4YTs8L3N0b3A+JiN4YTsgICAgICAgICAgICA8c3RvcCBvZmZzZXQ9IjEwMCUiIHN0b3AtY29sb3I9IiMwMDZFMDAiPiYjeGE7JiN4YTs8L3N0b3A+JiN4YTsgICAgICAgIDwvcmFkaWFsR3JhZGllbnQ+JiN4YTsgICAgICAgIDxyYWRpYWxHcmFkaWVudCBpZD0icmFkaWFsR3JhZGllbnQtMiIgZ3JhZGllbnRUcmFuc2Zvcm09InRyYW5zbGF0ZSgwLjAwMDAwMCwtMC4wMDAwMDQpLHNjYWxlKDEuMDAwMDAwLDAuODMyNTM0KSxyb3RhdGUoOTAuMDAwMDAwKSxzY2FsZSgxLjAwMDAwMCwwLjgzMjUzMSksdHJhbnNsYXRlKC0wLjAwMDAwMCwwLjAwMDAwNCkiIHI9IjEyMC4xMTU2OTclIiBmeT0iLTAuMDAwMzg1NDUzNDIyJSIgZng9IjUuOTU3MDMxMjVlLTA2JSIgY3k9Ii0wLjAwMDM4NTQ1MzQyMiUiIGN4PSI1Ljk1NzAzMTI1ZS0wNiUiPiYjeGE7ICAgICAgICAgICAgPHN0b3Agb2Zmc2V0PSIwJSIgc3RvcC1jb2xvcj0iIzU2QUZGRCI+JiN4YTsmI3hhOzwvc3RvcD4mI3hhOyAgICAgICAgICAgIDxzdG9wIG9mZnNldD0iMTAwJSIgc3RvcC1jb2xvcj0iIzA0QTNGRiI+JiN4YTsmI3hhOzwvc3RvcD4mI3hhOyAgICAgICAgPC9yYWRpYWxHcmFkaWVudD4mI3hhOyAgICAgICAgPHJhZGlhbEdyYWRpZW50IGlkPSJyYWRpYWxHcmFkaWVudC0zIiBncmFkaWVudFRyYW5zZm9ybT0idHJhbnNsYXRlKDEuMDAwMDAwLDAuMDAwMDAwKSxzY2FsZSgwLjgzMjUzMSwxLjAwMDAwMCkscm90YXRlKDE4MC4wMDAwMDApLHNjYWxlKDEuMDAwMDAwLDAuODMyNTMxKSx0cmFuc2xhdGUoLTEuMDAwMDAwLC0wLjAwMDAwMCkiIHI9IjEyMC4xMTU2OTclIiBmeT0iNS45NTcwMzEyNmUtMDYlIiBmeD0iOTkuOTk5OTg0NCUiIGN5PSI1Ljk1NzAzMTI2ZS0wNiUiIGN4PSI5OS45OTk5ODQ0JSI+JiN4YTsgICAgICAgICAgICA8c3RvcCBvZmZzZXQ9IjAlIiBzdG9wLWNvbG9yPSIjREYxRjAwIj4mI3hhOyYjeGE7PC9zdG9wPiYjeGE7ICAgICAgICAgICAgPHN0b3Agb2Zmc2V0PSIxMDAlIiBzdG9wLWNvbG9yPSIjNTYwRDAwIj4mI3hhOyYjeGE7PC9zdG9wPiYjeGE7ICAgICAgICA8L3JhZGlhbEdyYWRpZW50PiYjeGE7ICAgICAgICA8cmFkaWFsR3JhZGllbnQgaWQ9InJhZGlhbEdyYWRpZW50LTQiIGdyYWRpZW50VHJhbnNmb3JtPSJ0cmFuc2xhdGUoMS4wMDAwMDAsMS4wMDAwMDcpLHNjYWxlKDEuMDAwMDAwLDAuODMyNTM2KSxyb3RhdGUoLTkwLjAwMDAwMCksc2NhbGUoMS4wMDAwMDAsMC44MzI1MzEpLHRyYW5zbGF0ZSgtMS4wMDAwMDAsLTEuMDAwMDA3KSIgcj0iMTIwLjExNTY5NyUiIGZ5PSIxMDAuMDAwNjk0JSIgZng9Ijk5Ljk5OTk5NCUiIGN5PSIxMDAuMDAwNjk0JSIgY3g9Ijk5Ljk5OTk5NCUiPiYjeGE7ICAgICAgICAgICAgPHN0b3Agb2Zmc2V0PSIwJSIgc3RvcC1jb2xvcj0iIzAwRkZGRCI+JiN4YTsmI3hhOzwvc3RvcD4mI3hhOyAgICAgICAgICAgIDxzdG9wIG9mZnNldD0iMTAwJSIgc3RvcC1jb2xvcj0iIzAwREFGRiI+JiN4YTsmI3hhOzwvc3RvcD4mI3hhOyAgICAgICAgPC9yYWRpYWxHcmFkaWVudD4mI3hhOyAgICAgICAgPHJhZGlhbEdyYWRpZW50IGlkPSJyYWRpYWxHcmFkaWVudC01IiBncmFkaWVudFRyYW5zZm9ybT0idHJhbnNsYXRlKDAuMDAwMDA0LDEuMDAwMDAwKSxzY2FsZSgxLjAwMDAwMCwwLjU3MzEwNyksc2NhbGUoMS4wMDAwMDAsMS43NDQ4ODEpLHRyYW5zbGF0ZSgtMC4wMDAwMDQsLTEuMDAwMDAwKSIgcj0iOTkuOTk5NjM5OSUiIGZ5PSI5OS45OTk5OTQlIiBmeD0iMC4wMDAzNTQ3OTY3ODYlIiBjeT0iOTkuOTk5OTk0JSIgY3g9IjAuMDAwMzU0Nzk2Nzg2JSI+JiN4YTsgICAgICAgICAgICA8c3RvcCBvZmZzZXQ9IjAlIiBzdG9wLWNvbG9yPSIjMDA4MjAwIj4mI3hhOyYjeGE7PC9zdG9wPiYjeGE7ICAgICAgICAgICAgPHN0b3Agb2Zmc2V0PSIxMDAlIiBzdG9wLWNvbG9yPSIjMDA3NTAwIj4mI3hhOyYjeGE7PC9zdG9wPiYjeGE7ICAgICAgICA8L3JhZGlhbEdyYWRpZW50PiYjeGE7ICAgICAgICA8cmFkaWFsR3JhZGllbnQgaWQ9InJhZGlhbEdyYWRpZW50LTYiIGdyYWRpZW50VHJhbnNmb3JtPSJ0cmFuc2xhdGUoMC4wMDAwMDAsMC4wMDAwMDEpLHNjYWxlKDAuNTczMTA1LDEuMDAwMDAwKSxyb3RhdGUoOTAuMDAwMDAwKSxzY2FsZSgxLjAwMDAwMCwxLjc0NDg4MSksdHJhbnNsYXRlKC0wLjAwMDAwMCwtMC4wMDAwMDEpIiByPSI5OS45OTk5MDM5JSIgZnk9IjkuMDgyMjM0MjZlLTA1JSIgZng9IjUuOTU3MDMxMjVlLTA2JSIgY3k9IjkuMDgyMjM0MjZlLTA1JSIgY3g9IjUuOTU3MDMxMjVlLTA2JSI+JiN4YTsgICAgICAgICAgICA8c3RvcCBvZmZzZXQ9IjAlIiBzdG9wLWNvbG9yPSIjMzE2NkQ0Ij4mI3hhOyYjeGE7PC9zdG9wPiYjeGE7ICAgICAgICAgICAgPHN0b3Agb2Zmc2V0PSIxMDAlIiBzdG9wLWNvbG9yPSIjMUE1MDlFIj4mI3hhOyYjeGE7PC9zdG9wPiYjeGE7ICAgICAgICA8L3JhZGlhbEdyYWRpZW50PiYjeGE7ICAgICAgICA8cmFkaWFsR3JhZGllbnQgaWQ9InJhZGlhbEdyYWRpZW50LTciIGdyYWRpZW50VHJhbnNmb3JtPSJ0cmFuc2xhdGUoMS4wMDAwMDQsMC4wMDAwMDApLHNjYWxlKDEuMDAwMDAwLDAuNTczMTAzKSxyb3RhdGUoMTgwLjAwMDAwMCksc2NhbGUoMS4wMDAwMDAsMS43NDQ4ODEpLHRyYW5zbGF0ZSgtMS4wMDAwMDQsLTAuMDAwMDAwKSIgcj0iMTAwLjAwMDM1JSIgZnk9IjUuOTU3MDMxMjZlLTA2JSIgZng9IjEwMC4wMDAzNTUlIiBjeT0iNS45NTcwMzEyNmUtMDYlIiBjeD0iMTAwLjAwMDM1NSUiPiYjeGE7ICAgICAgICAgICAgPHN0b3Agb2Zmc2V0PSIwJSIgc3RvcC1jb2xvcj0iIzhFMTQwMCI+JiN4YTsmI3hhOzwvc3RvcD4mI3hhOyAgICAgICAgICAgIDxzdG9wIG9mZnNldD0iMTAwJSIgc3RvcC1jb2xvcj0iIzRCMEIwMCI+JiN4YTsmI3hhOzwvc3RvcD4mI3hhOyAgICAgICAgPC9yYWRpYWxHcmFkaWVudD4mI3hhOyAgICAgICAgPHJhZGlhbEdyYWRpZW50IGlkPSJyYWRpYWxHcmFkaWVudC04IiBncmFkaWVudFRyYW5zZm9ybT0idHJhbnNsYXRlKDEuMDAwMDAwLDEuMDAwMDEwKSxzY2FsZSgwLjU3MzEwOSwxLjAwMDAwMCkscm90YXRlKC05MC4wMDAwMDApLHNjYWxlKDEuMDAwMDAwLDEuNzQ0ODgxKSx0cmFuc2xhdGUoLTEuMDAwMDAwLC0xLjAwMDAxMCkiIHI9Ijk5Ljk5OTMzMjUlIiBmeT0iMTAwLjAwMTA0MiUiIGZ4PSI5OS45OTk5OTQlIiBjeT0iMTAwLjAwMTA0MiUiIGN4PSI5OS45OTk5OTQlIj4mI3hhOyAgICAgICAgICAgIDxzdG9wIG9mZnNldD0iMCUiIHN0b3AtY29sb3I9IiMwMDkwQzQiPiYjeGE7JiN4YTs8L3N0b3A+JiN4YTsgICAgICAgICAgICA8c3RvcCBvZmZzZXQ9IjEwMCUiIHN0b3AtY29sb3I9IiMwMDVEOEMiPiYjeGE7JiN4YTs8L3N0b3A+JiN4YTsgICAgICAgIDwvcmFkaWFsR3JhZGllbnQ+JiN4YTsgICAgICAgIDxyYWRpYWxHcmFkaWVudCBpZD0icmFkaWFsR3JhZGllbnQtOSIgZ3JhZGllbnRUcmFuc2Zvcm09InRyYW5zbGF0ZSgwLjAwMDAwMCwwLjk5OTk4OSksc2NhbGUoMS4wMDAwMDAsMC42NzkwNjgpLHNjYWxlKDEuMDAwMDAwLDEuNDcyNTg2KSx0cmFuc2xhdGUoLTAuMDAwMDAwLC0wLjk5OTk4OSkiIHI9Ijk5Ljk5OTk5MTUlIiBmeT0iOTkuOTk4OTAxNSUiIGZ4PSI0Ljg4MjgxMjQ0ZS0wNyUiIGN5PSI5OS45OTg5MDE1JSIgY3g9IjQuODgyODEyNDRlLTA3JSI+JiN4YTsgICAgICAgICAgICA8c3RvcCBvZmZzZXQ9IjAlIiBzdG9wLWNvbG9yPSIjMDBDRDFDIj4mI3hhOyYjeGE7PC9zdG9wPiYjeGE7ICAgICAgICAgICAgPHN0b3Agb2Zmc2V0PSIxMDAlIiBzdG9wLWNvbG9yPSIjMDBFOTUwIj4mI3hhOyYjeGE7PC9zdG9wPiYjeGE7ICAgICAgICA8L3JhZGlhbEdyYWRpZW50PiYjeGE7ICAgICAgICA8cmFkaWFsR3JhZGllbnQgaWQ9InJhZGlhbEdyYWRpZW50LTEwIiBncmFkaWVudFRyYW5zZm9ybT0idHJhbnNsYXRlKC0wLjAwMDAwMCwtMC4wMDAwMDApLHNjYWxlKDAuNjc5MDc4LDEuMDAwMDAwKSxyb3RhdGUoOTAuMDAwMDAwKSxzY2FsZSgxLjAwMDAwMCwxLjQ3MjU4NiksdHJhbnNsYXRlKDAuMDAwMDAwLDAuMDAwMDAwKSIgcj0iOTkuOTk5OTkxNSUiIGZ5PSItMS4xODgxNTEwNGUtMDUlIiBmeD0iLTYuNzQyMTQ0MTRlLTA2JSIgY3k9Ii0xLjE4ODE1MTA0ZS0wNSUiIGN4PSItNi43NDIxNDQxNGUtMDYlIj4mI3hhOyAgICAgICAgICAgIDxzdG9wIG9mZnNldD0iMCUiIHN0b3AtY29sb3I9IiNCMUM4RkQiPiYjeGE7JiN4YTs8L3N0b3A+JiN4YTsgICAgICAgICAgICA8c3RvcCBvZmZzZXQ9IjEwMCUiIHN0b3AtY29sb3I9IiM3RUMzRkQiPiYjeGE7JiN4YTs8L3N0b3A+JiN4YTsgICAgICAgIDwvcmFkaWFsR3JhZGllbnQ+JiN4YTsgICAgICAgIDxyYWRpYWxHcmFkaWVudCBpZD0icmFkaWFsR3JhZGllbnQtMTEiIGdyYWRpZW50VHJhbnNmb3JtPSJ0cmFuc2xhdGUoMS4wMDAwMDAsLTAuMDAwMDAwKSxzY2FsZSgxLjAwMDAwMCwwLjY3OTA3OCkscm90YXRlKDE4MC4wMDAwMDApLHNjYWxlKDEuMDAwMDAwLDEuNDcyNTg2KSx0cmFuc2xhdGUoLTEuMDAwMDAwLDAuMDAwMDAwKSIgcj0iOTkuOTk5OTkxNSUiIGZ5PSItNi43NDIxNDQxMWUtMDYlIiBmeD0iOTkuOTk5OTg3MSUiIGN5PSItNi43NDIxNDQxMWUtMDYlIiBjeD0iOTkuOTk5OTg3MSUiPiYjeGE7ICAgICAgICAgICAgPHN0b3Agb2Zmc2V0PSIwJSIgc3RvcC1jb2xvcj0iI0UxMkEwMCI+JiN4YTsmI3hhOzwvc3RvcD4mI3hhOyAgICAgICAgICAgIDxzdG9wIG9mZnNldD0iMTAwJSIgc3RvcC1jb2xvcj0iI0I2MkYwMCI+JiN4YTsmI3hhOzwvc3RvcD4mI3hhOyAgICAgICAgPC9yYWRpYWxHcmFkaWVudD4mI3hhOyAgICAgICAgPHJhZGlhbEdyYWRpZW50IGlkPSJyYWRpYWxHcmFkaWVudC0xMiIgZ3JhZGllbnRUcmFuc2Zvcm09InRyYW5zbGF0ZSgxLjAwMDAwMCwxLjAwMDAwMCksc2NhbGUoMC42NzkwODksMS4wMDAwMDApLHJvdGF0ZSgtOTAuMDAwMDAwKSxzY2FsZSgxLjAwMDAwMCwxLjQ3MjU4NiksdHJhbnNsYXRlKC0xLjAwMDAwMCwtMS4wMDAwMDApIiByPSI5OS45OTgzNjQlIiBmeT0iOTkuOTk5OTk5NSUiIGZ4PSIxMDAuMDAwMDA3JSIgY3k9Ijk5Ljk5OTk5OTUlIiBjeD0iMTAwLjAwMDAwNyUiPiYjeGE7ICAgICAgICAgICAgPHN0b3Agb2Zmc2V0PSIwJSIgc3RvcC1jb2xvcj0iIzAwQjZERCI+JiN4YTsmI3hhOzwvc3RvcD4mI3hhOyAgICAgICAgICAgIDxzdG9wIG9mZnNldD0iMTAwJSIgc3RvcC1jb2xvcj0iIzAwRkZGRiI+JiN4YTsmI3hhOzwvc3RvcD4mI3hhOyAgICAgICAgPC9yYWRpYWxHcmFkaWVudD4mI3hhOyAgICA8L2RlZnM+JiN4YTsJCTxnPiYjeGE7CQkJCTxwYXRoIGZpbGw9InVybCgjcmFkaWFsR3JhZGllbnQtMSkiIGQ9Ik0xNzkuMiwyMzAuNCBMMjU2LDIzMC40IEwxMzMuMTIsMTI4IEMxMzEuNDMzLDE2NS4xOTMgMTQ3LjgwNywyMDEuNTggMTc5LjIsMjMwLjQiPiYjeGE7JiN4YTs8L3BhdGg+JiN4YTsJCQkJPHBhdGggZmlsbD0idXJsKCNyYWRpYWxHcmFkaWVudC0yKSIgZD0iTTI1LjYsMTc5LjIgTDI1LjYsMjU2IEwxMjgsMTMzLjEyIEMxMjYuMjU0LDEzMy4wNDEgMTI0LjUxNywxMzMuMDAyIDEyMi43NzUsMTMzLjAwMiBDODcuNDE1LDEzMy4wMDQgNTMuMDY3LDE0OS4yODEgMjUuNiwxNzkuMiI+JiN4YTsmI3hhOzwvcGF0aD4mI3hhOwkJCQk8cGF0aCBmaWxsPSJ1cmwoI3JhZGlhbEdyYWRpZW50LTMpIiBkPSJNMCwyNS42IEwxMjIuODgsMTI4IEMxMjQuNTY3LDkwLjgwOCAxMDguMTkzLDU0LjQyIDc2LjgsMjUuNiBMMCwyNS42IFoiPiYjeGE7JiN4YTs8L3BhdGg+JiN4YTsJCQkJPHBhdGggZmlsbD0idXJsKCNyYWRpYWxHcmFkaWVudC00KSIgZD0iTTIzMC40LDAgTDEyOCwxMjIuODc5IEMxNjUuMTkzLDEyNC41NjcgMjAxLjU4LDEwOC4xOTIgMjMwLjQsNzYuNzk5IEwyMzAuNCwwIFoiPiYjeGE7JiN4YTs8L3BhdGg+JiN4YTsJCQkJPHBhdGggZmlsbD0idXJsKCNyYWRpYWxHcmFkaWVudC01KSIgZD0iTTEyOCwxMjggQzExNi41MjEsMTU3Ljc1NSAxMTguMjU1LDE4OC4wODYgMTMzLjEyLDIxNy42MDEgQzE0OC40OCwyMjUuMjggMTYxLjI4LDIzMC40IDE3OS4yLDIzMC40IEMxNDcuODA3LDIwMS41OCAxMzEuNDMzLDE2NS4xOTMgMTMzLjEyLDEyOCBMMTI4LDEyOCBaIj4mI3hhOyYjeGE7PC9wYXRoPiYjeGE7CQkJCTxwYXRoIGZpbGw9InVybCgjcmFkaWFsR3JhZGllbnQtNikiIGQ9Ik0zOC40LDEzMy4xMiBDMzAuNzIxLDE0OC40ODEgMjUuNiwxNjEuMjggMjUuNiwxNzkuMiBDNTQuNDE5LDE0Ny44MDcgOTAuODA3LDEzMS40MzQgMTI4LDEzMy4xMiBMMTI4LDEyOCBDMTE1LjA1NiwxMjMuMDA3IDEwMi4wMDYsMTIwLjUxNCA4OC45NiwxMjAuNTE0IEM3Mi4wMTQsMTIwLjUxNSA1NS4wNzYsMTI0LjcyMSAzOC40LDEzMy4xMiI+JiN4YTsmI3hhOzwvcGF0aD4mI3hhOwkJCQk8cGF0aCBmaWxsPSJ1cmwoI3JhZGlhbEdyYWRpZW50LTcpIiBkPSJNMTIyLjg4LDEyOCBMMTI4LDEyOCBDMTM5LjQ3OCw5OC4yNDUgMTM3Ljc0NSw2Ny45MTMgMTIyLjg4LDM4LjQgQzEwNy41MiwzMC43MiA5NC43MjEsMjUuNiA3Ni44LDI1LjYgQzEwOC4xOTMsNTQuNDIgMTI0LjU2Nyw5MC44MDggMTIyLjg4LDEyOCI+JiN4YTsmI3hhOzwvcGF0aD4mI3hhOwkJCQk8cGF0aCBmaWxsPSJ1cmwoI3JhZGlhbEdyYWRpZW50LTgpIiBkPSJNMTI4LDEyMi44NzkgTDEyOCwxMjggQzE1Ny43NTUsMTM5LjQ3OCAxODguMDg2LDEzNy43NDQgMjE3LjYsMTIyLjg3OSBDMjI1LjI4LDEwNy41MjEgMjMwLjQsOTQuNzIxIDIzMC40LDc2Ljc5OSBDMjAxLjU4LDEwOC4xOTIgMTY1LjE5MywxMjQuNTY3IDEyOCwxMjIuODc5Ij4mI3hhOyYjeGE7PC9wYXRoPiYjeGE7CQkJCTxwYXRoIGZpbGw9InVybCgjcmFkaWFsR3JhZGllbnQtOSkiIGQ9Ik03MS42OCwxNjYuNCBMMTMzLjEyLDIxNy42MDEgQzExOC4yNTUsMTg4LjA4NiAxMTYuNTIxLDE1Ny43NTUgMTI4LDEyOCBDMTI2LjIyNCwxMjcuNDA4IDEyNC4xNDIsMTI3LjEyNCAxMjEuODQyLDEyNy4xMjQgQzEwNC4yNDMsMTI3LjEyNSA3My45NDQsMTQzLjc1OSA3MS42OCwxNjYuNCI+JiN4YTsmI3hhOzwvcGF0aD4mI3hhOwkJCQk8cGF0aCBmaWxsPSJ1cmwoI3JhZGlhbEdyYWRpZW50LTEwKSIgZD0iTTM4LjQsMTMzLjEyIEM2Ny45MTQsMTE4LjI1NSA5OC4yNDUsMTE2LjUyMiAxMjgsMTI4IEMxMzMuMTIsMTEyLjY0MSAxMTUuMiw3NC4yNCA4OS42LDcxLjY4IEwzOC40LDEzMy4xMiBaIj4mI3hhOyYjeGE7PC9wYXRoPiYjeGE7CQkJCTxwYXRoIGZpbGw9InVybCgjcmFkaWFsR3JhZGllbnQtMTEpIiBkPSJNMTI4LDEyOCBDMTQzLjM2LDEzMy4xMiAxODEuNzU5LDExNS4yIDE4NC4zMiw4OS42IEwxMjIuODgsMzguNCBDMTM3Ljc0NSw2Ny45MTMgMTM5LjQ3OCw5OC4yNDUgMTI4LDEyOCI+JiN4YTsmI3hhOzwvcGF0aD4mI3hhOwkJCQk8cGF0aCBmaWxsPSJ1cmwoI3JhZGlhbEdyYWRpZW50LTEyKSIgZD0iTTEyOCwxMjggQzEyMi44OCwxNDMuMzYxIDE0MC44LDE4MS43NiAxNjYuNCwxODQuMzIgTDIxNy42LDEyMi44NzkgQzE4OC4wODYsMTM3Ljc0NCAxNTcuNzU1LDEzOS40NzggMTI4LDEyOCI+JiN4YTsmI3hhOzwvcGF0aD4mI3hhOwkJCQk8cGF0aCBmaWxsPSIjMDAwMDAwIiBkPSJNMTI3Ljk5OTgsMTIxLjYwMDQgQzEzMS41MzQ4LDEyMS42MDA0IDEzNC4zOTk4LDEyNC40NjU0IDEzNC4zOTk4LDEyNy45OTk0IEMxMzQuMzk5OCwxMzEuNTM1NCAxMzEuNTM0OCwxMzQuNDAwNCAxMjcuOTk5OCwxMzQuNDAwNCBDMTI0LjQ2NTgsMTM0LjQwMDQgMTIxLjYwMDgsMTMxLjUzNTQgMTIxLjYwMDgsMTI3Ljk5OTQgQzEyMS42MDA4LDEyNC40NjU0IDEyNC40NjU4LDEyMS42MDA0IDEyNy45OTk4LDEyMS42MDA0Ij4mI3hhOyYjeGE7PC9wYXRoPiYjeGE7CQk8L2c+JiN4YTs8L3N2Zz4=;" vertex="1" parent="1">
          <mxGeometry x="-127" y="130" width="100" height="100" as="geometry" />
        </mxCell>
        <mxCell id="s-Q4NVBxyVLEI7xBM-BY-16" value="&lt;font style=&quot;font-size: 18px;&quot;&gt;Apache&lt;br&gt;&amp;nbsp;Airflow&lt;/font&gt;" style="text;html=1;align=center;verticalAlign=middle;resizable=0;points=[];autosize=1;strokeColor=none;fillColor=none;" vertex="1" parent="1">
          <mxGeometry x="-9.5" y="150" width="80" height="60" as="geometry" />
        </mxCell>
        <mxCell id="s-Q4NVBxyVLEI7xBM-BY-17" value="" style="shape=image;verticalLabelPosition=bottom;labelBackgroundColor=default;verticalAlign=top;aspect=fixed;imageAspect=0;image=data:image/svg+xml,PHN2ZyB4bWxuczp4bGluaz0iaHR0cDovL3d3dy53My5vcmcvMTk5OS94bGluayIgeG1sbnM9Imh0dHA6Ly93d3cudzMub3JnLzIwMDAvc3ZnIiBwcmVzZXJ2ZUFzcGVjdFJhdGlvPSJ4TWlkWU1pZCIgdmVyc2lvbj0iMS4xIiB2aWV3Qm94PSIwIDAgNTExLjk5NzU1ODU5Mzc1IDEyMi44NjQ2Njk3OTk4MDQ2OSIgaGVpZ2h0PSIxOTEuOTc2MDQ2NTYyMTk0ODIiIHdpZHRoPSI3OTkuOTk2MTg1MzAyNzM0NCI+JiN4YTsgICAgPGc+JiN4YTsgICAgICAgIDxwYXRoIGZpbGw9IiMwMDAwMDAiIGQ9Ik0yMDcuNzg0NjM3LDQ1LjM5ODQ5NiBDMjIzLjA2MDgxMSw0NS4zOTg0OTYgMjI2LjQ4MDU0NCw1NC4zMDYxODQ3IDIyNi40ODA1NDQsNjQuNTg1ODYyMiBMMjI2LjQ4MDU0NCw3NC44MjQ1ODQ4IEwxOTkuODU5ODY1LDc0LjgyNDU4NDggTDE5OS44NTk4NjUsNzcuMjgxODc4MiBDMTk5Ljk2MjI1Miw4Mi45NzQ2MDggMjAyLjAwOTk5Nyw4NS4yMjcxMjcgMjA5LjI1OTAxMyw4NS4yMjcxMjcgQzIxNC4yMDM3MDksODUuMjAyMjYxMiAyMTkuMTE3Mjk1LDg0LjQ0MzEzOTggMjIzLjgzODk1NCw4Mi45NzQ2MDggTDIyNS43MDI0MDEsOTEuOTg0NjgzOSBDMjIwLjA4MTM4NCw5NC4wMTEwMjk1IDIxNC4xNDg3NzcsOTUuMDM2NzYwOCAyMDguMTczNzA4LDk1LjAxNTY3NDMgQzE5My4yMDQ2OTYsOTUuMDE1Njc0MyAxODguMDAzNDI0LDg4LjA3MzQ5MTggMTg4LjAwMzQyNCw3Ni41ODU2NDUxIEwxODguMDAzNDI0LDYzLjk5MjAxNjMgQzE4OC4wMDM0MjQsNTMuOTE3MTEzMiAxOTIuNTA4NDYyLDQ1LjM5ODQ5NiAyMDcuNzg0NjM3LDQ1LjM5ODQ5NiBaIE0zMDguMTY1MDczLDQ1LjM3ODAxODYgQzMyMy4xMzQwODUsNDUuMzc4MDE4NiAzMjcuNTU3MjE0LDUwLjY2MTE5OTQgMzI3LjU1NzIxNCw2Mi41OTk1NSBMMzI3LjUxNjI1OSw5NC4wMzI0Mjg0IEwzMTcuNzI4MDQsOTQuMDMyNDI4NCBMMzE2Ljg0NzUxLDkwLjc5Njk5MjEgQzMxMi42MjQ1MDIsOTMuNTQ1NDQ1NCAzMDcuNjk1MjY4LDk1LjAxMDcwMDkgMzAyLjY1NjY0LDk1LjAxNTM0NTggQzI5My45NTM3MjYsOTUuMDE1MzQ1OCAyOTAuMjI2ODMxLDg5LjAzNTkzMTggMjkwLjIyNjgzMSw4MC44MjQ0NzYyIEMyOTAuMjI2ODMxLDcxLjEzODY0NDcgMjk0LjQ0NTE4NSw2Ny40MTE3NDk2IDMwNC4xMzEwMTYsNjcuNDExNzQ5NiBMMzE1LjU3NzkwOCw2Ny40MTE3NDk2IEwzMTUuNTc3OTA4LDYyLjQxNTI1MyBDMzE1LjU3NzkwOCw1Ny4xMzIwNzIxIDMxNC4xMDM1MzIsNTUuMjY4NjI0NiAzMDYuNDY1NDQ1LDU1LjI2ODYyNDYgQzMwMi4wMjE4MzksNTUuMzE3NzcwNSAyOTcuNTk4NzExLDU1LjgxMzMyNDcgMjkzLjI1NzQ5Myw1Ni43NDMwMDA3IEwyOTEuNzgzMTE3LDQ3LjYzMDUzNzYgQzI5Ny4xMTk2MSw0Ni4xNTYwMjY3IDMwMi42Mjg2NTYsNDUuMzk4NTMyOSAzMDguMTY1MDczLDQ1LjM3ODAxODYgWiBNMzg3LjUxNTE3Myw0NS4zNzgwMTg2IEM0MDMuODU2MTc0LDQ1LjM3ODAxODYgNDA4LjI1ODg5Niw1NC4zODgwOTQ1IDQwOC4yNTg4OTYsNjQuMTc2MzEzMyBMNDA4LjI1ODg5Niw3Ni4yMTcwNTExIEM0MDguMjc5MzAzLDg2LjAwNTI2OTkgNDAzLjg1NjE3NCw5NS4wMTUzNDU4IDM4Ny41MTUxNzMsOTUuMDE1MzQ1OCBDMzcxLjEzMzIxNyw5NS4wMTUzNDU4IDM2Ni43NzE1MjEsODYuMDA1MjY5OSAzNjYuNzcxNTIxLDc2LjIxNzA1MTEgTDM2Ni43NzE1MjEsNjQuMTc2MzEzMyBDMzY2Ljc3MTUyMSw1NC4zODgwOTQ1IDM3MS4xNzQxNzIsNDUuMzc4MDE4NiAzODcuNTE1MTczLDQ1LjM3ODAxODYgWiBNMTk4LjAxNjg5NSwyOC44MzIyNDI5IEwxOTguMDE2ODk1LDM5LjcwNTc2NjMgTDE3OS43OTE5NjksMzkuNzA1NzY2MyBMMTc5Ljc5MTk2OSw5NC4wMzI0Mjg0IEwxNjcuNTA1NTAyLDk0LjAzMjQyODQgTDE2Ny40NjQ1NDcsMzkuNzA1NzY2MyBMMTQ5LjI2MDA5OCwzOS43MDU3NjYzIEwxNDkuMjYwMDk4LDI4LjgzMjI0MjkgTDE5OC4wMTY4OTUsMjguODMyMjQyOSBaIE0zNTUuMjIyMjQyLDI0LjkyMDgyOTggQzM1OC42ODE3NTIsMjQuOTA5MjQwNSAzNjIuMTI2NjEsMjUuMzcwODUxNSAzNjUuNDYwOTY1LDI2LjI5MzAzOTYgTDM2NC4yMTE4NCwzNS40ODc0MTI1IEMzNjEuOTU2NDczLDM1LjAwMjI5NjcgMzU5LjY1ODYyLDM0Ljc0MTY0NDcgMzU3LjM1MTg5NiwzNC43MDkyNjk2IEMzNTIuNjYyNTYxLDM0LjcwOTI2OTYgMzUxLjk2NjMyOCwzNi43NTcwMTQyIDM1MS45NjYzMjgsNDAuMzgxNTIyIEwzNTEuOTY2MzI4LDQ2LjM2MDkzNiBMMzY0LjEwOTQ1Myw0Ni4zNjA5MzYgTDM2My40MzM2OTgsNTUuODYyNDcwNSBMMzUxLjk4NjgwNiw1NS44NjI0NzA1IEwzNTEuOTg2ODA2LDk0LjAzMjQyODQgTDM0MC4wNDg0NTUsOTQuMDMyNDI4NCBMMzQwLjA0ODQ1NSw1NS44NjI0NzA1IEwzMzIuNDEwMzY4LDU1Ljg2MjQ3MDUgTDMzMi40MTAzNjgsNDYuMzYwOTM2IEwzNDAuMDQ4NDU1LDQ2LjM2MDkzNiBMMzQwLjA0ODQ1NSwzOS43MDU3NjYzIEMzNDAuMDQ4NDU1LDI5LjgxNTE2MDIgMzQ0LjY1NTg4LDI0LjkyMDgyOTggMzU1LjIyMjI0MiwyNC45MjA4Mjk4IFogTTQ4Mi4wMzkwNiw1MC40NzY5MDI0IEM0ODcuOTk2Njc2LDQ3LjQyNDgzODUgNDk0LjUzOTYyMSw0NS42ODYxMDUxIDUwMS4yMjY0MjYsNDUuMzc4MDE4NiBDNTA5LjE1MTE5OCw0NS4zNzgwMTg2IDUxMS45OTc1NjMsNTAuOTQ3ODgzNyA1MTEuOTk3NTYzLDU5LjQ2NjUwMDkgTDUxMS45OTc1NjMsOTQuMDMyNDI4NCBMNTAwLjA1OTIxMiw5NC4wMzI0Mjg0IEw1MDAuMDU5MjEyLDYwLjc1NjU3OTkgQzUwMC4wNTkyMTIsNTguMjE3Mzc2NyA0OTguOTczOTA3LDU2Ljk0Nzc3NTEgNDk2LjI1MDQwNyw1Ni45NDc3NzUxIEM0OTEuODY2ODUyLDU3LjQzMTExMTggNDg3LjYzMjg5NCw1OC44MjYxNTU2IDQ4My44MjA1OTgsNjEuMDQzMjY0MiBMNDgzLjgyMDU5OCw5NC4wMzI0Mjg0IEw0NzEuODAwMzM4LDk0LjAzMjQyODQgTDQ3MS44MDAzMzgsNjAuNzU2NTc5OSBDNDcxLjgwMDMzOCw1OC4yMTczNzY3IDQ3MC43MTUwMzMsNTYuOTQ3Nzc1MSA0NjcuOTkxNTMzLDU2Ljk0Nzc3NTEgQzQ2My42MTU1MDMsNTcuNDY3OTAyMiA0NTkuMzkxMDA2LDU4Ljg2MDM2ODUgNDU1LjU2MTcyNCw2MS4wNDMyNjQyIEw0NTUuNTYxNzI0LDk0LjAzMjQyODQgTDQ0My42MjMzNzMsOTQuMDMyNDI4NCBMNDQzLjYyMzM3Myw0Ni4zNjA5MzYgTDQ1Mi43MzU4MzYsNDYuMzYwOTM2IEw0NTMuOTAzMDUxLDUwLjQ1NjQyNSBDNDU5Ljg1MzYyMiw0Ny40NDYxOTA2IDQ2Ni4zNjg5MjIsNDUuNzE2MjE4IDQ3My4wMjg5ODQsNDUuMzc4MDE4NiBDNDc2LjgwMjk3Nyw0NS4wMjE3MTEgNDgwLjQwMDg2NSw0Ny4wNTcxNjkxIDQ4Mi4wMzkwNiw1MC40NzY5MDI0IFogTTI1Ny4xNzYyMzQsNDUuMzc4MDE4NiBMMjU4LjQwNDg4MSw1Ni4zNTM5MjkyIEMyNTQuMDA3NDc5LDU4LjMzODQ4NzggMjQ5Ljc2OTcyNyw2MC42NTkzMjQ2IDI0NS43MjkzNDMsNjMuMjk1NzgzMSBMMjQ1LjcyOTM0Myw5NC4wMTE5NTEgTDIzMy43OTA5OTIsOTQuMDExOTUxIEwyMzMuNzkwOTkyLDQ2LjM2MDkzNiBMMjQzLjg2NTg5NSw0Ni4zNjA5MzYgTDI0NC42NDQwMzgsNTEuNjQ0MTE2OCBDMjQ4LjUyODU1Nyw0OS4wMTQ4NTA3IDI1Mi43NDIxMSw0Ni45MDgwNzM4IDI1Ny4xNzYyMzQsNDUuMzc4MDE4NiBaIE0yODYuMzc3MDcxLDQ1LjM3ODAxODYgTDI4Ny41NjQ3NjMsNTYuMzUzOTI5MiBDMjgzLjE4MTE5OSw1OC4zMzk5NTQyIDI3OC45NTcxNyw2MC42NjA3NzM5IDI3NC45MzAxNzksNjMuMjk1NzgzMSBMMjc0LjkzMDE3OSw5NC4wMTE5NTEgTDI2Mi45OTE4MjksOTQuMDExOTUxIEwyNjIuOTkxODI5LDQ2LjM2MDkzNiBMMjczLjA2NjczMiw0Ni4zNjA5MzYgTDI3My44NDQ4NzUsNTEuNjQ0MTE2OCBDMjc3LjcyOTM5Myw0OS4wMTQ4NTA3IDI4MS45NDI5NDcsNDYuOTA4MDczOCAyODYuMzc3MDcxLDQ1LjM3ODAxODYgWiBNNDM3LjgwNzc3OSw0NS4zNzgwMTg2IEw0MzguOTk1NDcsNTYuMzUzOTI5MiBDNDM0LjYxMTkwNiw1OC4zMzk5NTQyIDQzMC4zODc4NzgsNjAuNjYwNzczOSA0MjYuMzYwODg3LDYzLjI5NTc4MzEgTDQyNi4zNjA4ODcsOTQuMDExOTUxIEw0MTQuNDIyNTM2LDk0LjAxMTk1MSBMNDE0LjQyMjUzNiw0Ni4zNjA5MzYgTDQyNC40OTc0MzksNDYuMzYwOTM2IEw0MjUuMjc1NTgyLDUxLjY0NDExNjggQzQyOS4xNTk4Niw0OS4wMTQ0Mzk3IDQzMy4zNzM0Nyw0Ni45MDc2MzUgNDM3LjgwNzc3OSw0NS4zNzgwMTg2IFogTTMxNS41Nzc5MDgsNzYuMDEyMjc2NiBMMzA2Ljc3MjYwNyw3Ni4wMTIyNzY2IEMzMDIuODYxNDE1LDc2LjAxMjI3NjYgMzAxLjc3NjExLDc3LjA5NzU4MTIgMzAxLjc3NjExLDgwLjcwMTYxMTYgQzMwMS43NzYxMSw4NC4zMDU2NDE5IDMwMi44NjE0MTUsODUuNDkzMzMzNyAzMDYuNTY3ODMyLDg1LjQ5MzMzMzcgQzMwOS43MzAwNTUsODUuNDQ1MDI1OCAzMTIuODI5MDA2LDg0LjU5OTg1NzUgMzE1LjU3NzkwOCw4My4wMzYwNDAzIEwzMTUuNTc3OTA4LDc2LjAxMjI3NjYgWiBNMzg3LjUxNTE3Myw1NS41NTUzMDg5IEMzODEuMTQ2Njg4LDU1LjU1NTMwODkgMzc4LjcwOTg3Miw1OC40MDE2NzM3IDM3OC43MDk4NzIsNjMuNzQ2Mjg2OSBMMzc4LjcwOTg3Miw3Ni41NjUxNjc2IEMzNzguNzA5ODcyLDgxLjk1MDczNTcgMzgxLjE2NzE2NSw4NC43NTYxNDU3IDM4Ny41MTUxNzMsODQuNzU2MTQ1NyBDMzkzLjg2MzE4MSw4NC43NTYxNDU3IDM5Ni4zMjA0NzUsODEuOTA5NzgwOCAzOTYuMzIwNDc1LDc2LjU2NTE2NzYgTDM5Ni4zMjA0NzUsNjMuNzg3MjQxOCBDMzk2LjMyMDQ3NSw1OC40MDE2NzM3IDM5My44ODM2NTksNTUuNTU1MzA4OSAzODcuNTE1MTczLDU1LjU1NTMwODkgWiBNMjA3Ljg4NzAyNCw1NS4xNjYyMzc0IEMyMDIuMDA5OTk3LDU1LjE2NjIzNzQgMTk5Ljk2MjI1Miw1OC4yOTkyODY1IDE5OS45NjIyNTIsNjIuODA0MzI0NSBMMTk5Ljk2MjI1Miw2NS4yMjA2NjMgTDIxNS4xMzYwMzksNjUuMjIwNjYzIEwyMTUuMTM2MDM5LDYyLjgwNDMyNDUgQzIxNS4xMzYwMzksNTguMjk5Mjg2NSAyMTMuNzY0MDUxLDU1LjE2NjIzNzQgMjA3Ljg4NzAyNCw1NS4xNjYyMzc0IFoiPiYjeGE7JiN4YTs8L3BhdGg+JiN4YTsgICAgICAgIDxnPiYjeGE7ICAgICAgICAgICAgPHBvbHlnb24gcG9pbnRzPSI3NC41Mzc5MDA2IDc5LjgyMTA4MTQgMTA4LjEyMDkxMSA2MC40NDk0MTgzIDEwOC4xMjA5MTEgMjEuNjQ0NjU5NiA3NC41Mzc5MDA2IDQxLjA1NzI3NzYiIGZpbGw9IiM0MDQwQjIiPiYjeGE7JiN4YTs8L3BvbHlnb24+JiN4YTsgICAgICAgICAgICA8cGF0aCBmaWxsPSIjNUM0RUU1IiBkPSJNMzcuMjY4OTUwMywyMS42NDQ2NTk2IEw3MC44NTE5NjA0LDQxLjA1NzI3NzYgTDcwLjg1MTk2MDQsNzkuODIxMDgxNCBMMzcuMjY4OTUwMyw2MC40Mjg5NDA4IE0wLDM4Ljc4NDI4MTIgTDMzLjU4MzAxMDEsNTguMTc2NDIxOCBMMzMuNTgzMDEwMSwxOS4zOTIxNDA2IEwwLDAgTTM3LjI2ODk1MDMsMTAzLjQ3MjUzMSBMNzAuODUxOTYwNCwxMjIuODY0NjcxIEw3MC44NTE5NjA0LDg0LjA4MDM5IEwzNy4yNjg5NTAzLDY0LjY4ODI0OTQiPiYjeGE7JiN4YTs8L3BhdGg+JiN4YTsgICAgICAgIDwvZz4mI3hhOyAgICA8L2c+JiN4YTs8L3N2Zz4=;" vertex="1" parent="1">
          <mxGeometry x="260" y="155" width="208.34" height="50" as="geometry" />
        </mxCell>
        <mxCell id="s-Q4NVBxyVLEI7xBM-BY-19" value="" style="rounded=1;whiteSpace=wrap;html=1;color=blue;background=blue" vertex="1" parent="1">
          <mxGeometry x="-300" y="260" width="380" height="410" as="geometry" />
        </mxCell>
        <mxCell id="s-Q4NVBxyVLEI7xBM-BY-4" value="" style="shape=image;verticalLabelPosition=bottom;labelBackgroundColor=default;verticalAlign=top;aspect=fixed;imageAspect=0;image=data:image/svg+xml,PHN2ZyB4bWxucz0iaHR0cDovL3d3dy53My5vcmcvMjAwMC9zdmciIHJvbGU9ImltZyIgdmlld0JveD0iMCAwIDI0IDI0IiBoZWlnaHQ9IjgwMHB4IiB3aWR0aD0iODAwcHgiIGZpbGw9IiMwMDAwMDAiPjx0aXRsZT5BcGFjaGUgS2Fma2EgaWNvbjwvdGl0bGU+PHBhdGggZD0iTTE2LjI2MiwxMy4yOTNjLTAuOTM1LDAtMS43NzIsMC40MTQtMi4zNDYsMS4wNjZsLTEuNDctMS4wNDFjMC4xNTYtMC40MywwLjI0Ni0wLjg5MSwwLjI0Ni0xLjM3NCBjMC0wLjQ3NS0wLjA4Ni0wLjkyOC0wLjIzNy0xLjM1MmwxLjQ2Ny0xLjAzYzAuNTc0LDAuNjQ5LDEuNDA5LDEuMDYsMi4zNDEsMS4wNmMxLjcyNSwwLDMuMTI5LTEuNDAzLDMuMTI5LTMuMTI5IHMtMS40MDQtMy4xMjktMy4xMjktMy4xMjlzLTMuMTI5LDEuNDAzLTMuMTI5LDMuMTI5YzAsMC4zMDksMC4wNDcsMC42MDcsMC4xMywwLjg4OWwtMS40NjgsMS4wMyBDMTEuMTgzLDguNjUzLDEwLjMsOC4xMjEsOS4yOTQsNy45NTlWNi4xOWMxLjQxNy0wLjI5OCwyLjQ4NS0xLjU1NywyLjQ4NS0zLjA2MUMxMS43NzksMS40MDMsMTAuMzc1LDAsOC42NSwwIFM1LjUyMiwxLjQwMyw1LjUyMiwzLjEyOWMwLDEuNDg0LDEuMDQsMi43MjgsMi40MjksMy4wNDd2MS43OTJjLTEuODk1LDAuMzMzLTMuMzQxLDEuOTg3LTMuMzQxLDMuOTc2IGMwLDEuOTk5LDEuNDYsMy42NTksMy4zNywzLjk4MXYxLjg5MmMtMS40MDMsMC4zMDgtMi40NTcsMS41Ni0yLjQ1NywzLjA1NEM1LjUyMiwyMi41OTcsNi45MjUsMjQsOC42NSwyNHMzLjEyOS0xLjQwMywzLjEyOS0zLjEyOSBjMC0xLjQ5NS0xLjA1NC0yLjc0Ni0yLjQ1Ny0zLjA1NHYtMS44OTJjMC45NjYtMC4xNjMsMS44NC0wLjY3MSwyLjQ2LTEuNDMxbDEuNDgsMS4wNDhjLTAuMDgyLDAuMjc5LTAuMTI4LDAuNTc0LTAuMTI4LDAuODggYzAsMS43MjUsMS40MDQsMy4xMjksMy4xMjksMy4xMjlzMy4xMjktMS40MDMsMy4xMjktMy4xMjlTMTcuOTg3LDEzLjI5MywxNi4yNjIsMTMuMjkzeiBNMTYuMjYyLDUuOTc3IGMwLjgzNywwLDEuNTE3LDAuNjgxLDEuNTE3LDEuNTE3cy0wLjY4LDEuNTE3LTEuNTE3LDEuNTE3Yy0wLjgzNiwwLTEuNTE3LTAuNjgxLTEuNTE3LTEuNTE3UzE1LjQyNiw1Ljk3NywxNi4yNjIsNS45Nzd6IE03LjEzMywzLjEyOWMwLTAuODM2LDAuNjgtMS41MTcsMS41MTctMS41MTdzMS41MTcsMC42ODEsMS41MTcsMS41MTdTOS40ODcsNC42NDYsOC42NSw0LjY0NlM3LjEzMywzLjk2NSw3LjEzMywzLjEyOXogTTEwLjE2NywyMC44NzFjMCwwLjgzNi0wLjY4LDEuNTE3LTEuNTE3LDEuNTE3cy0xLjUxNy0wLjY4MS0xLjUxNy0xLjUxN3MwLjY4LTEuNTE3LDEuNTE3LTEuNTE3UzEwLjE2NywyMC4wMzUsMTAuMTY3LDIwLjg3MXogTTguNjUsMTQuMDZjLTEuMTY3LDAtMi4xMTYtMC45NDktMi4xMTYtMi4xMTZjMC0xLjE2NywwLjk0OS0yLjExNiwyLjExNi0yLjExNmMxLjE2NywwLDIuMTE2LDAuOTQ5LDIuMTE2LDIuMTE2IEMxMC43NjYsMTMuMTExLDkuODE3LDE0LjA2LDguNjUsMTQuMDZ6IE0xNi4yNjIsMTcuOTM5Yy0wLjgzNywwLTEuNTE3LTAuNjgxLTEuNTE3LTEuNTE3YzAtMC44MzYsMC42OC0xLjUxNywxLjUxNy0xLjUxNyBzMS41MTcsMC42ODEsMS41MTcsMS41MTdDMTcuNzc5LDE3LjI1OCwxNy4wOTksMTcuOTM5LDE2LjI2MiwxNy45Mzl6Ii8+PC9zdmc+;" vertex="1" parent="1">
          <mxGeometry x="-127" y="430" width="60" height="60" as="geometry" />
        </mxCell>
        <mxCell id="s-Q4NVBxyVLEI7xBM-BY-6" value="" style="shape=image;verticalLabelPosition=bottom;labelBackgroundColor=default;verticalAlign=top;aspect=fixed;imageAspect=0;image=data:image/svg+xml,PHN2ZyB4bWxuczp4bGluaz0iaHR0cDovL3d3dy53My5vcmcvMTk5OS94bGluayIgeG1sbnM9Imh0dHA6Ly93d3cudzMub3JnLzIwMDAvc3ZnIiB2ZXJzaW9uPSIxLjEiIHZpZXdCb3g9IjAgLTEgMzQgMzQiIGhlaWdodD0iODAwcHgiIHdpZHRoPSI4MDBweCIgZmlsbD0iIzAwMDAwMCI+JiN4YTs8cGF0aCBkPSJNMjYuNTg4IDE1LjYyNWMwLjUzIDAuMTM4IDEuMDU5IDAuMjc2IDEuNzUxIDAuNDU2LTAuMzQtMC42NTUtMC41OTYtMS4yMTItMC45MTEtMS43MzItMC4xOTUtMC4zMjEtMC4xNTktMC41MjYgMC4wODgtMC43OTMgMC40NjEtMC40OTggMC44ODMtMS4wMzIgMS4zMjEtMS41NTEtMC4wMjEtMC4wNDMtMC4wNDMtMC4wODYtMC4wNjQtMC4xMjktMC41MzkgMC4xMzktMS4wOTIgMC4yMzgtMS42MTMgMC40MjgtMC41NDkgMC4yLTAuODk0IDAuMTI1LTEuMTQ3LTAuNDQ3LTAuMjAxLTAuNDUzLTAuNTExLTAuODU4LTAuODY2LTEuNDM0LTAuMTM0IDAuNy0wLjI4MSAxLjI0Ni0wLjMzMyAxLjgtMC4wNTMgMC41NzUtMC4yNzkgMC44OTEtMC44NzEgMS4wMTEtMC41NTcgMC4xMTMtMS4wOTEgMC4zNC0xLjgwMSAwLjU3IDAuNjk2IDAuMjk5IDEuMjUyIDAuNTM3IDEuODgyIDAuODA4LTAuMzgxIDAuMjQ5LTAuNzA0IDAuNDY4LTEuMDM2IDAuNjctMC4wODUgMC4wNTItMC4yMjUgMC4xMDQtMC4yOTkgMC4wNjktMC42MTYtMC4yODctMS4yNjktMC41MjctMS44MTgtMC45MTQtMC41MTktMC4zNjYtMC4zODctMS4wMzEgMC4yMjktMS4yODIgMC43MzEtMC4yOTcgMS40ODktMC41MzMgMi4yNDctMC43NTIgMC4zNDktMC4xMDEgMC40OTYtMC4yNzIgMC41NDEtMC42MjggMC4wNzUtMC41ODcgMC4xOTctMS4xNjkgMC4zMTMtMS43NTEgMC4wMzgtMC4xOTIgMC4wOTMtMC4zODggMC4xODEtMC41NjEgMC4zNTEtMC42OTIgMC45MzktMC43NDEgMS4zNzgtMC4xMDMgMC4zMjYgMC40NzQgMC42MzcgMC45NjQgMC44OTcgMS40NzYgMC4yMTUgMC40MjIgMC40NjYgMC41IDAuOTA1IDAuMzU3IDAuNjY1LTAuMjE4IDEuMzQ1LTAuNDA5IDIuMDMzLTAuNTI2IDAuMjkzLTAuMDUwIDAuNjIyIDAuMTE1IDAuOTM1IDAuMTgzLTAuMDg0IDAuMzEyLTAuMDg5IDAuNjgyLTAuMjY3IDAuOTI0LTAuNDY4IDAuNjM3LTEuMDAxIDEuMjI4LTEuNTMgMS44MTgtMC4yMjMgMC4yNDktMC4yNzMgMC40NDktMC4wOTEgMC43NTUgMC4zMyAwLjU1NiAwLjY1NCAxLjEyNSAwLjg5MSAxLjcyNCAwLjExIDAuMjc5IDAuMTI5IDAuNzI4LTAuMDI3IDAuOTM5LTAuMTU2IDAuMjEtMC42IDAuMzMyLTAuODg4IDAuMjkxLTAuNTgxLTAuMDgzLTEuMi0wLjIwOS0xLjY5LTAuNTA0LTAuMjc2LTAuMTY2LTAuMzI3LTAuNzA1LTAuNDgtMS4wNzcgMC4wNDctMC4wMzEgMC4wOTQtMC4wNjMgMC4xNDEtMC4wOTV6IiBmaWxsPSJyZ2IoMCwgMCwgMCkiLz4mI3hhOzxwYXRoIGQ9Ik05LjAzNSAyMS4yNjRjLTAuMDkwIDAuNjItMC4xNzUgMS4yMDUtMC4yNjUgMS44MjYtMC4zNjUgMC0wLjcxNCAwLTEuMTI1IDAgMC4xMTYtMC45MzQgMC4yMjYtMS44MzcgMC4zNDEtMi43MzkgMC4wNTktMC40NjQgMC4xMTgtMC45MjcgMC4xOTEtMS4zODkgMC4yMTgtMS4zNjMgMS4zNTMtMi40NjIgMi42NjYtMi41OTEgMS45NzUtMC4xOTMgMy4yNDIgMS41NDUgMi40NTggMy4zNzItMC43MjggMS42OTctMi40NDggMi4zMjgtNC4yNjggMS41MjF6TTEyLjMxNyAxOC44MjljMC4wMDctMC43NDgtMC41MzctMS4yOTktMS4yODYtMS4zLTAuOTAzLTAuMDAyLTEuNjk4IDAuNzg5LTEuNjk1IDEuNjg3IDAuMDAzIDAuNzM0IDAuNTY2IDEuMjgxIDEuMzE4IDEuMjc4IDAuODY5LTAuMDAzIDEuNjU0LTAuNzkgMS42NjMtMS42NjZ6IiBmaWxsPSJyZ2IoMCwgMCwgMCkiLz4mI3hhOzxwYXRoIGQ9Ik0zLjMxNSAyMC4yMTFjMC40MDQtMC4yMTYgMC43ODItMC40MTggMS4xOS0wLjYzNiAwLjExNiAwLjE5IDAuMjA2IDAuMzYyIDAuMzE5IDAuNTE3IDAuMzIyIDAuNDQxIDAuODMzIDAuNDk1IDEuMjc2IDAuMTQ1IDAuNDEtMC4zMjQgMC40MzUtMC42MzcgMC4wNDMtMS4xMDktMC4zMzMtMC40MDEtMC42OS0wLjc4NC0xLjA1MC0xLjE2My0wLjU0Ni0wLjU3Ni0wLjg1Ny0xLjIyOS0wLjUyNy0yLjAwOCAwLjM1Ny0wLjg0NCAxLjAyMi0xLjMyNSAxLjk0Ni0xLjQyMiAwLjg3OS0wLjA5MiAxLjQ3OCAwLjMyIDEuOTM4IDEuMDk3LTAuMzYzIDAuMjc3LTAuNzI3IDAuNTUzLTEuMDg5IDAuODI5LTAuMTgzLTAuMTk1LTAuMzE5LTAuNDY3LTAuNTA3LTAuNTExLTAuMjk0LTAuMDY4LTAuNjg1LTAuMDgyLTAuOTI1IDAuMDYzLTAuMzU0IDAuMjE1LTAuMTMzIDAuNTMzIDAuMDg1IDAuNzcyIDAuMzM5IDAuMzczIDAuNjcgMC43NTYgMS4wMzAgMS4xMDcgMC42MDggMC41OTQgMC44NjkgMS4yODggMC41OTYgMi4xMDctMC4yOTYgMC44ODgtMC45MjYgMS40NTMtMS44NDcgMS42NDItMS4zMDYgMC4yNjgtMi4wNjItMC4xNjgtMi40OC0xLjQzMXoiIGZpbGw9InJnYigwLCAwLCAwKSIvPiYjeGE7PHBhdGggZD0iTTE4Ljk1NSAyMS41MDdjLTAuNDI3IDAtMC43NjQgMC0xLjE2MSAwIDAuMTAxLTAuNzc2IDAuMjE1LTEuNTE4IDAuMjg5LTIuMjY0IDAuMDYxLTAuNjE3LTAuMDM3LTEuMjA0LTAuNjIxLTEuNTY1LTAuNDczLTAuMjkyLTEuMjE1LTAuMTg1LTEuNzE2IDAuMjQyLTAuNDk5IDAuNDI1LTAuNzYgMC45NTktMC41ODIgMS42MzEgMC4yMjcgMC44NTcgMS4xNTEgMS4xOTUgMi4wMDggMC43MzkgMC4xNTUtMC4wODMgMC4zMDEtMC4xODMgMC40OTktMC4zMDYtMC4wMzYgMC4yNDktMC4wNjcgMC40NDQtMC4wOTIgMC42MzgtMC4xMSAwLjg1Ny0wLjI1MyAwLjk5MS0xLjEgMS4wMzAtMS44MzEgMC4wODYtMi45Ny0xLjM5Mi0yLjQyNS0zLjE0NSAwLjQxOS0xLjM0NiAxLjczNy0yLjI0NCAzLjE0OS0yLjE0NCAxLjE3OSAwLjA4NCAyLjExMyAxLjAzNSAyLjA2NSAyLjIxNy0wLjAzOSAwLjk2Ny0wLjIwMSAxLjkyOC0wLjMxMyAyLjkyNnoiIGZpbGw9InJnYigwLCAwLCAwKSIvPiYjeGE7PHBhdGggZD0iTTI0LjA3MCAxNy42OTRjMC43MzgtMC44MDggMS4zNjQtMS40OTQgMi4wMTItMi4yMDQgMC4yODQgMC43MzIgMC4zNTggMS4zNDktMC4zMzIgMS44Ni0wLjMxMSAwLjIzLTAuNTQ1IDAuNTY0LTAuODI4IDAuODY2IDAuNzc4IDEuMDk0IDEuNTM2IDIuMTYyIDIuMzY0IDMuMzI2LTAuNTI1IDAtMC45NjQgMC4wMjctMS4zOTYtMC4wMTYtMC4xMzctMC4wMTMtMC4yODUtMC4xOTEtMC4zNzgtMC4zMjctMC41MDQtMC43NC0wLjk5Mi0xLjQ5MS0xLjU4LTIuMzgxLTAuMTEyIDAuNzgyLTAuMjU2IDEuNDA3LTAuMjc3IDIuMDM2LTAuMDE4IDAuNTc0LTAuMjQyIDAuNzY2LTAuNzgxIDAuNjgxLTAuMTcyLTAuMDI3LTAuMzUtMC4wMTgtMC41ODYtMC4wMjkgMC4xNDQtMS4xNDIgMC4yOC0yLjI0NCAwLjQyMy0zLjM0NSAwLjA4NS0wLjY2IDAuMjE3LTEuMzE3IDAuMjU5LTEuOTc5IDAuMDI3LTAuNDMxIDAuMTkxLTAuNyAwLjU1OS0wLjg5NiAwLjI4MS0wLjE1IDAuNTQyLTAuMzM4IDAuOTA5LTAuNTcxLTAuMTI0IDEuMDExLTAuMjM3IDEuOTI3LTAuMzY2IDIuOTc4eiIgZmlsbD0icmdiKDAsIDAsIDApIi8+JiN4YTs8cGF0aCBkPSJNMjIuMjUxIDE3LjY1Yy0wLjIxMiAwLTAuMzU1IDAuMDA4LTAuNDk2LTAuMDAxLTAuNDIyLTAuMDI3LTAuNjI3IDAuMTc3LTAuNjc4IDAuNTg4LTAuMTE0IDAuOTA5LTAuMjggMS44MTQtMC4zNDkgMi43MjYtMC4wMzYgMC40NzctMC4xOTggMC42NDEtMC42NTMgMC41NzUtMC4xNzMtMC4wMjUtMC4zNTItMC4wMDQtMC42MDItMC4wMDQgMC4xMS0wLjg4NiAwLjIxLTEuNzE3IDAuMzE2LTIuNTQ3IDAuMDQzLTAuMzM5IDAuMDkwLTAuNjc3IDAuMTQ4LTEuMDEzIDAuMTcyLTEuMDA4IDAuNzQ4LTEuNDg5IDEuNzc3LTEuNDkzIDAuMTgtMC4wMDEgMC4zNiAwLjAwNCAwLjUzOSAwLjAxMSAwLjAzMiAwLjAwMSAwLjA2NCAwLjAyOCAwLjEyOCAwLjA1Ny0wLjA0MCAwLjM0MS0wLjA4MSAwLjY5MS0wLjEyOSAxLjEwMnoiIGZpbGw9InJnYigwLCAwLCAwKSIvPiYjeGE7PHBhdGggZD0iTTEyLjMxNyAxOC44MjljLTAuMDA5IDAuODc2LTAuNzk0IDEuNjYzLTEuNjYzIDEuNjY2LTAuNzUxIDAuMDAzLTEuMzE1LTAuNTQ0LTEuMzE4LTEuMjc4LTAuMDAzLTAuODk4IDAuNzkxLTEuNjg5IDEuNjk1LTEuNjg3IDAuNzQ4IDAuMDAxIDEuMjkzIDAuNTUyIDEuMjg2IDEuM3oiIGZpbGw9InJnYigyNTUsIDI1NSwgMjU1KSIvPiYjeGE7PC9zdmc+;" vertex="1" parent="1">
          <mxGeometry x="-20" y="418.5" width="83" height="83" as="geometry" />
        </mxCell>
        <mxCell id="s-Q4NVBxyVLEI7xBM-BY-1" value="" style="sketch=0;points=[[0,0,0],[0.25,0,0],[0.5,0,0],[0.75,0,0],[1,0,0],[0,1,0],[0.25,1,0],[0.5,1,0],[0.75,1,0],[1,1,0],[0,0.25,0],[0,0.5,0],[0,0.75,0],[1,0.25,0],[1,0.5,0],[1,0.75,0]];outlineConnect=0;fontColor=#232F3E;gradientColor=#60A337;gradientDirection=north;fillColor=#277116;strokeColor=#ffffff;dashed=0;verticalLabelPosition=bottom;verticalAlign=top;align=center;html=1;fontSize=12;fontStyle=0;aspect=fixed;shape=mxgraph.aws4.resourceIcon;resIcon=mxgraph.aws4.iot_events;" vertex="1" parent="1">
          <mxGeometry x="-267" y="435" width="50" height="50" as="geometry" />
        </mxCell>
        <mxCell id="s-Q4NVBxyVLEI7xBM-BY-5" value="&lt;font style=&quot;font-size: 18px;&quot;&gt;Apache&lt;br&gt;Kafka&lt;/font&gt;" style="text;html=1;align=center;verticalAlign=middle;resizable=0;points=[];autosize=1;strokeColor=none;fillColor=none;" vertex="1" parent="1">
          <mxGeometry x="-137" y="520" width="80" height="60" as="geometry" />
        </mxCell>
        <mxCell id="s-Q4NVBxyVLEI7xBM-BY-2" value="&lt;font style=&quot;font-size: 18px;&quot;&gt;Eventsim&lt;/font&gt;" style="text;html=1;align=center;verticalAlign=middle;resizable=0;points=[];autosize=1;strokeColor=none;fillColor=none;" vertex="1" parent="1">
          <mxGeometry x="-287" y="530" width="100" height="40" as="geometry" />
        </mxCell>
        <mxCell id="s-Q4NVBxyVLEI7xBM-BY-20" value="Compute&#xa;Engine" style="sketch=0;html=1;verticalAlign=top;labelPosition=center;verticalLabelPosition=bottom;align=center;spacingTop=-6;fontSize=11;fontStyle=1;fontColor=#999999;shape=image;aspect=fixed;imageAspect=0;image=data:image/svg+xml,PHN2ZyB4bWxucz0iaHR0cDovL3d3dy53My5vcmcvMjAwMC9zdmciIHhtbG5zOnY9Imh0dHBzOi8vdmVjdGEuaW8vbmFubyIgd2lkdGg9IjIwIiBoZWlnaHQ9IjIwIiB2aWV3Qm94PSIwIDAgMjAgMjAiPiYjeGE7CTxzdHlsZSB0eXBlPSJ0ZXh0L2NzcyI+JiN4YTsJLnN0MHtmaWxsOiM0Mjg1ZjQ7fSYjeGE7CS5zdDF7ZmlsbDojNjY5ZGY2O30mI3hhOwkuc3Qye2ZpbGw6I2FlY2JmYTt9JiN4YTsJPC9zdHlsZT4mI3hhOwk8cGF0aCBjbGFzcz0ic3QyIiBkPSJNNyA3aDZ2Nkg3eiIvPiYjeGE7CTxwYXRoIGNsYXNzPSJzdDEiIGQ9Ik05IDBoMnY0SDl6TTUgMGgydjRINXptOCAwaDJ2NGgtMnoiLz4mI3hhOwk8cGF0aCBjbGFzcz0ic3QwIiBkPSJNOSAxNmgydjRIOXptLTQgMGgydjRINXptOCAwaDJ2NGgtMnptMy01VjloNHYyem0wIDR2LTJoNHYyem0wLThWNWg0djJ6Ii8+JiN4YTsJPHBhdGggY2xhc3M9InN0MSIgZD0iTTAgMTFWOWg0djJ6bTAgNHYtMmg0djJ6bTAtOFY1aDR2MnoiLz4mI3hhOwk8cGF0aCBjbGFzcz0ic3QyIiBkPSJNMyAzdjE0aDE0VjN6bTEyIDEySDVWNWgxMHoiLz4mI3hhOwk8cGF0aCBjbGFzcz0ic3QxIiBkPSJNMTAgMTBsLTMgM2g2eiIvPiYjeGE7CTxwYXRoIGNsYXNzPSJzdDAiIGQ9Ik0xMyA3bC0zIDMgMyAzeiIvPiYjeGE7PC9zdmc+;" vertex="1" parent="1">
          <mxGeometry x="-310" y="243.5" width="73" height="73" as="geometry" />
        </mxCell>
        <mxCell id="s-Q4NVBxyVLEI7xBM-BY-21" value="" style="rounded=1;whiteSpace=wrap;html=1;" vertex="1" parent="1">
          <mxGeometry x="280" y="255" width="540" height="410" as="geometry" />
        </mxCell>
        <mxCell id="s-Q4NVBxyVLEI7xBM-BY-8" value="Cloud&#xa;Storage" style="sketch=0;html=1;verticalAlign=top;labelPosition=center;verticalLabelPosition=bottom;align=center;spacingTop=-6;fontSize=11;fontStyle=1;fontColor=#999999;shape=image;aspect=fixed;imageAspect=0;image=data:image/svg+xml,PHN2ZyB4bWxucz0iaHR0cDovL3d3dy53My5vcmcvMjAwMC9zdmciIHhtbG5zOnY9Imh0dHBzOi8vdmVjdGEuaW8vbmFubyIgd2lkdGg9IjIwIiBoZWlnaHQ9IjE2IiB2aWV3Qm94PSIwIDAgMjAgMTYiPiYjeGE7CTxzdHlsZSB0eXBlPSJ0ZXh0L2NzcyI+JiN4YTsJLnN0MHtmaWxsOiM0Mjg1ZjQ7fSYjeGE7CS5zdDF7ZmlsbDojNjY5ZGY2O30mI3hhOwkuc3Qye2ZpbGw6I2FlY2JmYTt9JiN4YTsJLnN0M3tmaWxsOiNmZmY7fSYjeGE7CTwvc3R5bGU+JiN4YTsJPHBhdGggY2xhc3M9InN0MiIgZD0iTTAgMGgyMHY3SDB6Ii8+JiN4YTsJPHBhdGggY2xhc3M9InN0MSIgZD0iTTE4IDBoMnY3aC0yeiIvPiYjeGE7CTxwYXRoIGNsYXNzPSJzdDAiIGQ9Ik0xOCA3bDItN2gtMnoiLz4mI3hhOwk8cGF0aCBjbGFzcz0ic3QxIiBkPSJNMCAwaDJ2N0gweiIvPiYjeGE7CTxnIGNsYXNzPSJzdDMiPiYjeGE7CQk8cGF0aCBkPSJNNCAzaDZ2MUg0eiIvPiYjeGE7CQk8cmVjdCB4PSIxMyIgeT0iMiIgd2lkdGg9IjMiIGhlaWdodD0iMyIgcng9IjEuNSIvPiYjeGE7CTwvZz4mI3hhOwk8cGF0aCBjbGFzcz0ic3QyIiBkPSJNMCA5aDIwdjdIMHoiLz4mI3hhOwk8cGF0aCBjbGFzcz0ic3QxIiBkPSJNMTggOWgydjdoLTJ6Ii8+JiN4YTsJPHBhdGggY2xhc3M9InN0MCIgZD0iTTE4IDE2bDItN2gtMnoiLz4mI3hhOwk8cGF0aCBjbGFzcz0ic3QxIiBkPSJNMCA5aDJ2N0gweiIvPiYjeGE7CTxnIGNsYXNzPSJzdDMiPiYjeGE7CQk8cGF0aCBkPSJNNCAxMmg2djFINHoiLz4mI3hhOwkJPHJlY3QgeD0iMTMiIHk9IjExIiB3aWR0aD0iMyIgaGVpZ2h0PSIzIiByeD0iMS41Ii8+JiN4YTsJPC9nPiYjeGE7PC9zdmc+;" vertex="1" parent="1">
          <mxGeometry x="320" y="398" width="64.23" height="52" as="geometry" />
        </mxCell>
        <mxCell id="s-Q4NVBxyVLEI7xBM-BY-7" value="BigQuery" style="sketch=0;html=1;verticalAlign=top;labelPosition=center;verticalLabelPosition=bottom;align=center;spacingTop=-6;fontSize=11;fontStyle=1;fontColor=#999999;shape=image;aspect=fixed;imageAspect=0;image=data:image/svg+xml,PHN2ZyB4bWxucz0iaHR0cDovL3d3dy53My5vcmcvMjAwMC9zdmciIHhtbG5zOnY9Imh0dHBzOi8vdmVjdGEuaW8vbmFubyIgd2lkdGg9IjIwLjAwMTA0NTIyNzA1MDc4IiBoZWlnaHQ9IjIwLjAwMTA0NTIyNzA1MDc4IiBmaWxsLXJ1bGU9ImV2ZW5vZGQiIHZpZXdCb3g9IjAgMCAyMC4wMDEwNDUyMjcwNTA3OCAyMC4wMDEwNDUyMjcwNTA3OCI+JiN4YTsJPHN0eWxlIHR5cGU9InRleHQvY3NzIj4mI3hhOwkuc3Qwe2ZpbGw6I2FlY2JmYTt9JiN4YTsJLnN0MXtmaWxsOiM2NjlkZjY7fSYjeGE7CS5zdDJ7ZmlsbDojNDI4NWY0O30mI3hhOwk8L3N0eWxlPiYjeGE7CTxwYXRoIGNsYXNzPSJzdDAiIGQ9Ik00LjczIDguODN2Mi42M2E0LjkxIDQuOTEgMCAwIDAgMS43MSAxLjc0VjguODN6Ii8+JiN4YTsJPHBhdGggY2xhc3M9InN0MSIgZD0iTTcuODkgNi40MXY3LjUzQTcuNjIgNy42MiAwIDAgMCA5IDE0YTggOCAwIDAgMCAxIDBWNi40MXoiLz4mI3hhOwk8cGF0aCBjbGFzcz0ic3QwIiBkPSJNMTEuNjQgOS44NnYzLjI5YTUgNSAwIDAgMCAxLjctMS44MlY5Ljg2eiIvPiYjeGE7CTxwYXRoIGNsYXNzPSJzdDIiIGQ9Ik0xNS43NCAxNC4zMmwtMS40MiAxLjQyYS40Mi40MiAwIDAgMCAwIC42bDMuNTQgMy41NGEuNDIuNDIgMCAwIDAgLjU5IDBsMS40My0xLjQzYS40Mi40MiAwIDAgMCAwLS41OWwtMy41NC0zLjU0YS40Mi40MiAwIDAgMC0uNiAwIi8+JiN4YTsJPHBhdGggY2xhc3M9InN0MSIgZD0iTTkgMGE5IDkgMCAxIDAgMCAxOEE5IDkgMCAxIDAgOSAwbTAgMTUuNjlhNi42OCA2LjY4IDAgMCAxIC4wMDctMTMuMzYgNi42OCA2LjY4IDAgMCAxIDQuNzI3IDExLjQwM0E2LjY4IDYuNjggMCAwIDEgOSAxNS42OSIvPiYjeGE7PC9zdmc+;" vertex="1" parent="1">
          <mxGeometry x="460" y="394" width="60" height="60" as="geometry" />
        </mxCell>
        <mxCell id="s-Q4NVBxyVLEI7xBM-BY-10" value="" style="shape=image;verticalLabelPosition=bottom;labelBackgroundColor=default;verticalAlign=top;aspect=fixed;imageAspect=0;image=data:image/svg+xml,PHN2ZyB4bWxuczp4bGluaz0iaHR0cDovL3d3dy53My5vcmcvMTk5OS94bGluayIgeG1sbnM9Imh0dHA6Ly93d3cudzMub3JnLzIwMDAvc3ZnIiB4bWw6c3BhY2U9InByZXNlcnZlIiBzdHlsZT0iZW5hYmxlLWJhY2tncm91bmQ6bmV3IDAgMCAzMDYgMjEwOyIgdmlld0JveD0iMCAwIDMwNiAyMTAiIHk9IjBweCIgeD0iMHB4IiBpZD0ia2F0bWFuXzEiIHZlcnNpb249IjEuMCI+JiN4YTs8c3R5bGUgdHlwZT0idGV4dC9jc3MiPiYjeGE7CS5zdDB7ZmlsbDojMjYyQTM4O30mI3hhOwkuc3Qxe2ZpbGw6I0ZGNjk0QTt9JiN4YTs8L3N0eWxlPiYjeGE7PHBhdGggZD0iTTI3Mi40LDEzNC41bC0wLjUsMS4zaC0wLjJsLTAuNS0xLjN2MS4zaC0wLjNWMTM0aDAuNGwwLjUsMS40bDAuNS0xLjRoMC40djEuOGgtMC4zVjEzNC41eiBNMjcwLjcsMTM0LjNoLTAuNSYjMTA7JiM5O3YxLjZoLTAuM3YtMS42aC0wLjVWMTM0aDEuM1YxMzQuM3oiIGNsYXNzPSJzdDAiLz4mI3hhOzxwYXRoIGQ9Ik0xODYuMSw3My45djYxLjRoLTEyLjV2LTYuM2MtMS4zLDIuMi0zLjIsNC01LjUsNS4xYy0yLjQsMS4yLTUuMiwxLjktOCwxLjljLTMuNCwwLjEtNi44LTAuOS05LjctMi44JiMxMDsmIzk7Yy0yLjktMi01LjItNC42LTYuNy03LjhjLTEuNi0zLjctMi40LTcuNi0yLjQtMTEuNmMtMC4xLTQsMC43LTcuOSwyLjQtMTEuNWMxLjUtMy4xLDMuNy01LjgsNi42LTcuNmMyLjktMS45LDYuMy0yLjgsOS44LTIuNyYjMTA7JiM5O2MyLjcsMCw1LjQsMC42LDcuNywxLjhjMi4zLDEuMSw0LjIsMi44LDUuNSw1Vjc4LjFMMTg2LjEsNzMuOXogTTE3MS4xLDEyMy4yYzEuNi0yLjEsMi41LTUuMiwyLjUtOS4yYzAtNC0wLjgtNy0yLjUtOS4xJiMxMDsmIzk7Yy0xLjctMi4xLTQuNC0zLjMtNy4yLTMuM2MtMi44LTAuMi01LjUsMS4xLTcuMiwzLjJjLTEuNywyLjEtMi42LDUuMS0yLjYsOWMwLDQsMC45LDcuMSwyLjYsOS4zYzEuNywyLjIsNC41LDMuNCw3LjIsMy4zJiMxMDsmIzk7QzE2Ny4xLDEyNi41LDE2OS41LDEyNS4zLDE3MS4xLDEyMy4yeiIgY2xhc3M9InN0MCIvPiYjeGE7PHBhdGggZD0iTTIzMC42LDk0LjdjMi45LDEuOSw1LjIsNC42LDYuNiw3LjZjMS42LDMuNiwyLjQsNy41LDIuNCwxMS41YzAuMSw0LTAuNyw4LTIuNCwxMS42Yy0xLjUsMy4yLTMuNyw1LjktNi43LDcuOCYjMTA7JiM5O2MtMi44LDEuOS02LjMsMi44LTkuNywyLjhjLTIuOCwwLjEtNS41LTAuNi04LTEuOWMtMi4zLTEuMS00LjItMi45LTUuNC01LjF2Ni4zSDE5NVY3OC4xbDEyLjYtNC4yVjk5YzEuMi0yLjIsMy4xLTQsNS40LTUuMSYjMTA7JiM5O2MyLjQtMS4zLDUuMS0yLDcuOS0xLjlDMjI0LjMsOTEuOSwyMjcuNyw5Mi45LDIzMC42LDk0Ljd6IE0yMjQuNCwxMjMuMWMxLjctMi4yLDIuNS01LjMsMi41LTkuNGMwLTMuOS0wLjgtNi45LTIuNS05JiMxMDsmIzk7Yy0xLjctMi4xLTQuMS0zLjItNy4yLTMuMmMtMi44LTAuMi01LjUsMS4xLTcuMiwzLjNjLTEuNywyLjItMi41LDUuMi0yLjUsOS4xYzAsNCwwLjgsNy4xLDIuNSw5LjJjMS43LDIuMiw0LjQsMy40LDcuMiwzLjMmIzEwOyYjOTtDMjIwLjEsMTI2LjYsMjIyLjcsMTI1LjMsMjI0LjQsMTIzLjF6IiBjbGFzcz0ic3QwIi8+JiN4YTs8cGF0aCBkPSJNMjU3LDEwMi41djE2LjRjMCwyLjQsMC43LDQuMSwxLjgsNS4xYzEuMywxLjEsMywxLjcsNC44LDEuNmMxLjQsMCwyLjgtMC4yLDQuMi0wLjZ2OS44JiMxMDsmIzk7Yy0yLjQsMC44LTQuOCwxLjItNy4yLDEuMWMtNS4yLDAtOS4yLTEuNS0xMi00LjRjLTIuOC0yLjktNC4yLTcuMS00LjItMTIuNXYtMzZMMjU3LDc5djE0aDEwLjd2OS40SDI1N3oiIGNsYXNzPSJzdDAiLz4mI3hhOzxwYXRoIGQ9Ik0xMTguMiw2My43YzIuMSwyLDMuNSw0LjcsMy44LDcuNmMwLDEuMi0wLjMsMi0xLjEsMy42Yy0wLjcsMS41LTkuOCwxNy4yLTEyLjUsMjEuNWMtMS41LDIuNS0yLjQsNS41LTIuNCw4LjUmIzEwOyYjOTtjMCwzLDAuOCw1LjksMi40LDguNWMyLjcsNC4zLDExLjcsMjAsMTIuNSwyMS42YzAuNywxLjUsMS4xLDIuMywxLjEsMy41Yy0wLjMsMi45LTEuNiw1LjYtMy43LDcuNmMtMiwyLjEtNC43LDMuNS03LjYsMy43JiMxMDsmIzk7Yy0xLjIsMC0yLTAuMy0zLjUtMS4xYy0xLjUtMC43LTE3LjQtOS41LTIxLjctMTIuMmMtMC4zLTAuMi0wLjctMC40LTEuMS0wLjZsLTIxLjMtMTIuNmMwLjUsNC4xLDIuMyw4LDUuMiwxMC44JiMxMDsmIzk7YzAuNiwwLjYsMS4xLDEuMSwxLjgsMS41Yy0wLjUsMC4yLTEuMSwwLjUtMS41LDAuOGMtNC4zLDIuNy0yMCwxMS43LTIxLjYsMTIuNWMtMS41LDAuNy0yLjMsMS4xLTMuNiwxLjFjLTIuOS0wLjMtNS42LTEuNi03LjYtMy43JiMxMDsmIzk7Yy0yLjEtMi0zLjUtNC43LTMuOC03LjZjMC4xLTEuMiwwLjQtMi40LDEuMS0zLjVjMC43LTEuNSw5LjgtMTcuMywxMi41LTIxLjZjMS41LTIuNSwyLjQtNS41LDIuNC04LjVjMC0zLTAuOC01LjktMi40LTguNSYjMTA7JiM5O2MtMi43LTQuNS0xMS44LTIwLjItMTIuNS0yMS43Yy0wLjctMS4xLTEtMi4zLTEuMS0zLjVjMC4zLTIuOSwxLjYtNS42LDMuNy03LjZjMi0yLjEsNC43LTMuNCw3LjYtMy43YzEuMiwwLjEsMi40LDAuNCwzLjYsMS4xJiMxMDsmIzk7YzEuMywwLjYsMTIuOCw3LjIsMTguOSwxMC44bDEuNCwwLjhjMC41LDAuMywwLjksMC42LDEuMiwwLjdsMC43LDAuNGwyMS43LDEyLjljLTAuNS00LjktMy05LjQtNi45LTEyLjRjMC41LTAuMiwxLjEtMC41LDEuNS0wLjgmIzEwOyYjOTtjNC4zLTIuNywyMC0xMS44LDIxLjYtMTIuNWMxLjEtMC43LDIuMy0xLDMuNi0xLjFDMTEzLjUsNjAuMywxMTYuMSw2MS42LDExOC4yLDYzLjd6IE03OC4xLDExMC44bDQuNi00LjZjMC43LTAuNywwLjctMS42LDAtMi4zJiMxMDsmIzk7bC00LjYtNC42Yy0wLjctMC43LTEuNi0wLjctMi4zLDBsLTQuNiw0LjZjLTAuNywwLjctMC43LDEuNiwwLDIuM2w0LjYsNC42Qzc2LjQsMTExLjMsNzcuNSwxMTEuMyw3OC4xLDExMC44eiIgY2xhc3M9InN0MSIvPiYjeGE7PC9zdmc+;" vertex="1" parent="1">
          <mxGeometry x="590" y="398" width="87.43" height="60" as="geometry" />
        </mxCell>
        <mxCell id="s-Q4NVBxyVLEI7xBM-BY-11" value="BigQuery" style="sketch=0;html=1;verticalAlign=top;labelPosition=center;verticalLabelPosition=bottom;align=center;spacingTop=-6;fontSize=11;fontStyle=1;fontColor=#999999;shape=image;aspect=fixed;imageAspect=0;image=data:image/svg+xml,PHN2ZyB4bWxucz0iaHR0cDovL3d3dy53My5vcmcvMjAwMC9zdmciIHhtbG5zOnY9Imh0dHBzOi8vdmVjdGEuaW8vbmFubyIgd2lkdGg9IjIwLjAwMTA0NTIyNzA1MDc4IiBoZWlnaHQ9IjIwLjAwMTA0NTIyNzA1MDc4IiBmaWxsLXJ1bGU9ImV2ZW5vZGQiIHZpZXdCb3g9IjAgMCAyMC4wMDEwNDUyMjcwNTA3OCAyMC4wMDEwNDUyMjcwNTA3OCI+JiN4YTsJPHN0eWxlIHR5cGU9InRleHQvY3NzIj4mI3hhOwkuc3Qwe2ZpbGw6I2FlY2JmYTt9JiN4YTsJLnN0MXtmaWxsOiM2NjlkZjY7fSYjeGE7CS5zdDJ7ZmlsbDojNDI4NWY0O30mI3hhOwk8L3N0eWxlPiYjeGE7CTxwYXRoIGNsYXNzPSJzdDAiIGQ9Ik00LjczIDguODN2Mi42M2E0LjkxIDQuOTEgMCAwIDAgMS43MSAxLjc0VjguODN6Ii8+JiN4YTsJPHBhdGggY2xhc3M9InN0MSIgZD0iTTcuODkgNi40MXY3LjUzQTcuNjIgNy42MiAwIDAgMCA5IDE0YTggOCAwIDAgMCAxIDBWNi40MXoiLz4mI3hhOwk8cGF0aCBjbGFzcz0ic3QwIiBkPSJNMTEuNjQgOS44NnYzLjI5YTUgNSAwIDAgMCAxLjctMS44MlY5Ljg2eiIvPiYjeGE7CTxwYXRoIGNsYXNzPSJzdDIiIGQ9Ik0xNS43NCAxNC4zMmwtMS40MiAxLjQyYS40Mi40MiAwIDAgMCAwIC42bDMuNTQgMy41NGEuNDIuNDIgMCAwIDAgLjU5IDBsMS40My0xLjQzYS40Mi40MiAwIDAgMCAwLS41OWwtMy41NC0zLjU0YS40Mi40MiAwIDAgMC0uNiAwIi8+JiN4YTsJPHBhdGggY2xhc3M9InN0MSIgZD0iTTkgMGE5IDkgMCAxIDAgMCAxOEE5IDkgMCAxIDAgOSAwbTAgMTUuNjlhNi42OCA2LjY4IDAgMCAxIC4wMDctMTMuMzYgNi42OCA2LjY4IDAgMCAxIDQuNzI3IDExLjQwM0E2LjY4IDYuNjggMCAwIDEgOSAxNS42OSIvPiYjeGE7PC9zdmc+;" vertex="1" parent="1">
          <mxGeometry x="730" y="390" width="60" height="60" as="geometry" />
        </mxCell>
        <mxCell id="s-Q4NVBxyVLEI7xBM-BY-22" value="" style="shape=image;verticalLabelPosition=bottom;labelBackgroundColor=default;verticalAlign=top;aspect=fixed;imageAspect=0;image=data:image/svg+xml,PHN2ZyB4bWxucz0iaHR0cDovL3d3dy53My5vcmcvMjAwMC9zdmciIGZpbGw9Im5vbmUiIHZpZXdCb3g9IjAgMCAxNiAxNiIgaGVpZ2h0PSI4MDBweCIgd2lkdGg9IjgwMHB4Ij48cGF0aCBkPSJNMTAuMzEzIDUuMzc2bDEuODg3LTEuNS0uMzMyLS40MTRhNS45MzUgNS45MzUgMCAwMC01LjU4Ni0xLjIxNyA1Ljg5IDUuODkgMCAwMC0zLjk3OCA0LjA4NGMtLjAzLjExMy4zMTItLjA5OC40NjMtLjA1NmwyLjYwOC0uNDI4cy4xMjctLjEyNC4yMDEtLjIwNWMxLjE2LTEuMjY2IDMuMTI2LTEuNDMyIDQuNDY1LS4zNTRsLjI3Mi4wOXoiIGZpbGw9IiNFQTQzMzUiLz48cGF0aCBkPSJNMTMuNjM3IDYuM2E1LjgzNSA1LjgzNSAwIDAwLTEuNzctMi44MzhsLTEuODMgMS44MmEzLjIyNiAzLjIyNiAwIDAxMS4xOTMgMi41NjR2LjMyM2MuOSAwIDEuNjMuNzI1IDEuNjMgMS42MiAwIC44OTMtLjczIDEuNjE5LTEuNjMgMS42MTlsLTMuMjU3LS4wMDMtLjMyNS4wMzV2Mi41MDdsLjMyNS4wNTNoMy4yNTdhNC4yMzQgNC4yMzQgMCAwMDQuMDgtMi45NjJBNC4xOTkgNC4xOTkgMCAwMDEzLjYzNiA2LjN6IiBmaWxsPSIjNDI4NUY0Ii8+PHBhdGggZD0iTTQuNzExIDEzLjk5OUg3Ljk3di0yLjU5NEg0LjcxYy0uMjMyIDAtLjQ2MS0uMDY2LS42NzItLjE2MWwtLjQ1OC4xNC0xLjMxMyAxLjI5Ny0uMTE0LjQ0N2E0LjI1NCA0LjI1NCAwIDAwMi41NTcuODd6IiBmaWxsPSIjMzRBODUzIi8+PHBhdGggZD0iTTQuNzExIDUuNTcyQTQuMjM0IDQuMjM0IDAgMDAuNzIxIDguNDRhNC4yMDYgNC4yMDYgMCAwMDEuNDMzIDQuNjg4bDEuODktMS44ODRhMS42MTcgMS42MTcgMCAwMS40NC0zLjA3OSAxLjYzIDEuNjMgMCAwMTEuNzE0LjkzNmwxLjg5LTEuODc4QTQuMjQgNC4yNCAwIDAwNC43MSA1LjU3MnoiIGZpbGw9IiNGQkJDMDUiLz48L3N2Zz4=;" vertex="1" parent="1">
          <mxGeometry x="740" y="240" width="80" height="80" as="geometry" />
        </mxCell>
        <mxCell id="s-Q4NVBxyVLEI7xBM-BY-24" value="&lt;font style=&quot;font-size: 18px;&quot;&gt;GCP&lt;/font&gt;" style="text;html=1;align=center;verticalAlign=middle;resizable=0;points=[];autosize=1;strokeColor=none;fillColor=none;" vertex="1" parent="1">
          <mxGeometry x="680" y="270" width="60" height="40" as="geometry" />
        </mxCell>
      </root>
    </mxGraphModel>
  </diagram>
</mxfile>
